 <svg 
        class="autograph logo" height="103" viewBox="0 0 424 103" width="600" xmlns="http://www.w3.org/2000/svg">
        <g  fill="none" fill-rule="evenodd" stroke="#fbfbfb" stroke-linecap="round" stroke-linejoin="round" stroke-width="3"
        transform="translate(2 2)">

        <path class="autograph__path" d="m52.5,16.5c-0.8785,1.2215 -0.80183,2.16059 -1.16667,3c-0.29753,0.68455 -1.2991,1.1974 -1.66666,2c-0.34015,0.74272 -0.15483,1.65148 -0.45067,2.484c-0.31364,0.8826 -0.59957,1.78093 -0.88267,2.68267c-0.21196,0.67514 -0.73068,1.65624 -0.82266,2.42266c-0.1061,0.88405 -0.66752,1.43548 -0.98534,2.26134c-0.33741,0.87678 -0.9826,1.43132 -1.02533,2.24933c-0.04694,0.89878 0.43786,1.87887 -0.16667,2.73333c-0.46828,0.66189 -0.64678,1.3223 -1,2.16667c-0.29933,0.71556 -1.06888,1.46757 -1.3125,2.02083c-0.41962,0.95295 -0.18591,1.89438 -0.74216,2.73634c-0.48103,0.7281 -1.03546,1.32052 -1.48317,2.05716c-0.43045,0.70825 -0.67137,1.44653 -0.9955,2.18034c-0.46457,1.05173 -1.02269,1.73043 -1.24733,2.658c-0.16538,0.68286 -0.5918,1.67306 -0.886,2.514c-0.28064,0.80216 -0.37235,1.64775 -0.74134,2.45866c-0.3827,0.84105 -0.32822,1.78788 -0.7825,2.6175c-0.34172,0.62407 -1.243,1.2283 -1.5215,2.0785c-0.26953,0.82283 -0.40285,1.7972 -0.82583,2.43134c-0.48977,0.73428 -1.00895,1.38026 -1.23833,2.49017c-0.17388,0.8413 -0.1837,1.78905 -0.66784,2.35716c-0.63517,0.74535 -1.27857,1.39046 -1.388,2.2c-0.1208,0.89377 -0.68687,1.62256 -0.94416,2.5c-0.25378,0.86546 -0.22451,1.69953 -0.66784,2.336c-0.59023,0.84738 -0.95295,1.56246 -1.48916,2.3425c-0.50951,0.74118 -0.83495,1.55355 -1.25284,2.3215c-0.45758,0.8409 -0.63012,1.70019 -0.64733,2.5c-0.018,0.83658 -0.24513,1.70441 -0.61066,2.37467c-0.53141,0.97439 -1.1449,1.54799 -1.33217,2.478c-0.13753,0.68295 -0.22109,2.37964 0.5175,2.30066c0.80855,-0.08646 0.99894,-1.41641 1.37266,-2.25333c0.34488,-0.77232 0.79808,-1.43097 1.25134,-2.184c0.40293,-0.66942 0.56074,-1.69366 1.02283,-2.61616c0.2966,-0.59212 1.02223,-1.36183 1.3425,-2.0745c0.41317,-0.91939 0.51862,-1.70291 0.87867,-2.58934c0.24442,-0.60174 0.72101,-1.55369 0.98933,-2.184c0.42001,-0.98665 0.39985,-2.08844 0.65334,-2.852c0.25634,-0.77216 0.87066,-1.50384 0.91483,-2.52133c0.02945,-0.67834 0.15841,-1.70384 0.70433,-2.37417c0.53385,-0.65552 1.04822,-1.45503 1.46217,-2.3045c0.31784,-0.65225 0.71084,-1.44482 1.12,-2.204c0.38868,-0.72118 1.04481,-1.55465 1.3615,-2.1585c0.34224,-0.65256 0.83167,-1.65489 1.109,-2.59433c0.22137,-0.74987 0.28274,-1.57477 0.74283,-2.52234c0.41004,-0.84448 0.64579,-1.69628 0.936,-2.35683c0.34113,-0.77643 0.87591,-1.76298 1.164,-2.4c0.41741,-0.92299 0.72302,-1.70818 0.964,-2.53867c0.30443,-1.04911 0.31678,-1.78798 0.54584,-2.678c0.25537,-0.99228 0.60642,-1.50557 1.0755,-2.394c0.33662,-0.63757 0.80804,-1.66945 1.05749,-2.406c0.25144,-0.74239 0.44649,-1.49641 0.75717,-2.58066c0.28975,-1.01117 0.49964,-1.64076 0.64284,-2.26217c0.27551,-1.19555 0.23056,-2.08983 0.40983,-2.833c0.24782,-1.02734 1.12913,-1.47114 1.51133,-2.29283c0.34749,-0.74707 0.26597,-1.60531 0.60267,-2.612c0.23642,-0.70687 0.63785,-1.67802 0.85867,-2.30533c0.33595,-0.9544 1.0905,-1.51812 1.37466,-2.14801c0.31792,-0.70468 0.88705,-1.69016 1.31467,-2.51066c0.39779,-0.76325 0.72416,-1.59999 1.38533,-2.30284c0.50216,-0.53381 0.87964,-1.58054 1.464,-2.0025c0.36043,-0.26025 0.436,0.80267 0.436,1.70267c0,0.9 0,1.8 0,2.7c0,0.90133 0.06166,1.8705 -0.02083,2.7c-0.08372,0.84185 -0.72615,1.52801 -0.94317,2.41067c-0.21759,0.88502 -0.036,1.764 -0.036,2.704c0,0.88533 -0.12429,1.66277 -0.57466,2.48533c-0.42728,0.78039 -0.23145,1.72146 -0.42667,2.59867c-0.18054,0.81123 -0.94975,1.36775 -0.99417,2.15316c-0.05056,0.89412 -0.18151,1.81099 -0.42983,2.49484c-0.30338,0.83549 -0.51121,1.83453 -0.55383,2.6325c-0.04011,0.75068 -0.02271,1.84455 -0.52084,2.52083c-0.48093,0.65294 -0.5,1.484 -0.5,2.34733c0,1.01667 0.09381,1.87522 -0.16666,2.81934c-0.19085,0.69173 -0.62647,1.42016 -0.77617,2.42883c-0.10998,0.74107 -0.05717,1.7685 -0.05717,2.7045c0,0.9 0.08759,1.81472 -0.08533,2.58533c-0.17884,0.797 -0.65106,1.49941 -0.82933,2.51334c-0.1641,0.9333 -0.08534,1.84416 -0.08534,2.80133c0,0.9 0.02709,1.80046 0,2.6c-0.0286,0.84428 -0.86136,1.3579 -1.05266,2.01883c-0.27163,0.93843 -0.47102,1.67459 -0.66334,2.41317c-0.28316,1.08745 -0.284,2.068 -0.284,2.968c0,0.9 0.09149,1.81253 -0.05716,2.55716c-0.18462,0.92475 -0.72655,1.5577 -0.90684,2.6175c-0.15888,0.93394 -0.036,1.62534 -0.036,2.60384c0,0.82017 -0.01679,1.72166 0,2.6215c0.01801,0.9645 0.61923,1.24181 1.16934,0.59867c0.58954,-0.68925 1.39467,-0.92072 1.84533,-1.83467c0.39349,-0.79801 0.57513,-1.5333 0.90266,-2.48c0.26428,-0.76387 0.82093,-1.51002 1.37734,-2.23134c0.57102,-0.74026 1.05727,-1.4798 1.65267,-2.00533c0.63813,-0.56326 1.04632,-1.27486 1.478,-2.04733c0.45782,-0.81924 0.80861,-1.55828 1.222,-2.3c0.42563,-0.76369 0.70577,-1.60375 1.35266,-2.3c0.5605,-0.60327 0.98333,-1.382 1.5,-2c0.5344,-0.6392 0.77172,-1.49159 1.11067,-2.21067c0.47076,-0.99871 0.79994,-1.6107 1.1465,-2.30366c0.56424,-1.12822 0.888,-1.79308 1.26367,-2.46484c0.3719,-0.66505 0.93906,-1.56111 1.57466,-2.15383c0.70583,-0.65821 1.37549,-1.19395 1.88367,-1.84617c0.6117,-0.78507 1.31207,-1.28166 1.74217,-2.121c0.35709,-0.69685 0.65688,-1.56656 0.83133,-2.24716c0.26885,-1.04891 0.72957,-1.79569 1.11667,-2.53801c0.43449,-0.8332 1.08172,-1.26734 1.49733,-2.11466c0.36766,-0.74957 0.45881,-1.8569 0.85417,-2.5c0.5264,-0.85626 0.98331,-1.51872 1.47916,-2.5c0.30255,-0.59873 0.69582,-1.40211 1.1,-2.19983c0.39592,-0.78142 0.95847,-1.59515 1.37917,-2.30017c0.46793,-0.78419 0.30625,-1.81787 0.95683,-2.43867c0.60738,-0.57957 1.40707,-0.9218 1.85951,-1.714c0.38517,-0.67442 0.53663,-1.7792 0.98983,-2.54733c0.40213,-0.68158 1.1631,-1.17464 1.71466,-1.96667c0.4404,-0.63237 0.85459,-1.31432 1.38934,-2.208c0.54713,-0.91439 0.48284,-1.63351 0.61083,-2.60366c0.12126,-0.91914 0.9145,-1.307 1.00117,-2.22167l0.22016,-0.9l0.483,-0.6" />
        <path class="autograph__path" d="m67.5,74.5c1.83334,-0.16666 2.23772,-0.7927 3.09983,-1.00017c0.84013,-0.20218 1.30019,-0.71731 2.19567,-1.00433c0.76085,-0.24387 1.28704,-0.68311 2.09384,-1.00617c0.78914,-0.31598 1.39782,-0.65532 2.17466,-1.02533c0.7399,-0.35242 1.33693,-0.79563 2.26934,-1.13066c0.80846,-0.2905 1.60799,-0.71721 2.36666,-1.11734c0.85838,-0.45272 1.62345,-0.30269 2.44283,-0.77317c0.81206,-0.46626 1.26362,-0.97668 2.00983,-1.3c0.89087,-0.38599 1.53968,-1.01764 2.34734,-1.47617c0.71955,-0.4085 1.49408,-1.01232 2,-1.68749c0.35448,-0.47307 1.17384,-1.46509 1.55334,-2.05784c0.49513,-0.77335 0.44674,-1.72133 0.44666,-2.62133c-0.00008,-0.89983 -0.28236,-1.7572 -1.2,-1.8c-0.89885,-0.04192 -1.40865,-0.50781 -2.15717,-0.94283c-0.73038,-0.42448 -1.74283,-0.05717 -2.64283,-0.05717c-0.8,0 -1.7,0 -2.6,0c-0.9,0 -1.76993,0.03335 -2.42533,0.57467c-0.60484,0.49954 -1.14133,1.25866 -1.97467,1.42533c-0.83334,0.16667 -1.54677,0.67027 -1.94283,1.35717c-0.47196,0.81852 -0.24802,1.76884 -0.76167,2.34283c-0.65803,0.73533 -1.50384,1.31731 -1.93833,2c-0.46595,0.73213 -0.1143,1.73484 -0.36167,2.5955c-0.2207,0.76789 -0.97928,1.22525 -0.9955,2.2045c-0.01491,0.89994 -0.44234,1.6118 -0.83334,2.5c-0.28949,0.65763 -0.16666,1.6 -0.16666,2.5c0,0.9 0,1.8 0,2.7c0,0.9 0,1.8 0,2.6c0,0.9 0.24541,1.63784 0.83334,2.36666c0.56353,0.69857 0.71103,1.5888 1.66666,1.8125c0.87655,0.2052 1.8,0.02084 2.7,0.02084c0.9,0 1.8,0 2.6,0c0.9,0 1.8,0 2.7,0c0.9,0 1.8,-0.0045 2.6,-0.22134l0.7,-0.49466l0.8,-0.27333"  id="svg_2"  stroke-width="5"/>
        <path class="autograph__path" d="m109.47896,78.5c-1.27716,0 -1.98495,0.05759 -2.31693,0.80133c-0.31202,0.69907 -0.66668,1.49732 -0.68816,2.39867c-0.02144,0.89955 -0.24281,1.95442 0.16628,2.67866c0.3631,0.64286 0.91213,1.10334 1.56165,1.12134c0.67599,0.01874 1.3523,0 2.02844,0c0.60102,0 1.38663,0.44958 1.98549,-0.05716c0.46737,-0.39548 0.11568,-1.41687 -0.35773,-2.10951c-0.4099,-0.59973 -0.95491,-0.74464 -1.62776,-0.83333c-0.63536,-0.08374 -0.96564,-0.91467 -1.6508,-1l-0.13623,0l0.66012,0"  id="svg_18"  stroke-dasharray="null" stroke-linecap="null" stroke-linejoin="null" stroke-width="5"/>
        <path class="autograph__path" d="m143.5,58.5c-0.05716,1.7 -0.68555,2.42255 -0.94284,3.3c-0.25377,0.86546 -0.25023,1.82403 -0.76166,2.4c-0.65021,0.73227 -1.12357,1.40826 -1.2955,2.3c-0.17156,0.88973 -0.75955,1.31366 -1.00133,2.19867c-0.21794,0.79777 -0.9624,1.24801 -0.99884,2.12266c-0.03555,0.85334 -0.28136,1.79719 -0.70433,2.43134c-0.48978,0.73428 -1.00906,1.38024 -1.23834,2.49016c-0.17378,0.84131 0.26463,1.89507 -0.22383,2.59051c-0.50232,0.71517 -0.72257,1.2735 -0.83333,2.16666c-0.11151,0.89923 -0.86342,1.32605 -1.42534,1.97467c-0.50931,0.5879 -0.63016,1.45949 -0.40799,1.02533c0.33052,-0.64592 0.77464,-1.53945 1.05499,-2.32166c0.26583,-0.74172 0.65003,-1.37416 1.26233,-2.361c0.33325,-0.53711 0.84926,-1.31793 1.49451,-2.17467c0.49011,-0.65076 1.03384,-1.47063 1.3215,-2.148c0.31357,-0.73839 0.81781,-1.8407 1.17917,-2.45301c0.48839,-0.82756 0.3781,-1.82679 0.87349,-2.48899c0.51807,-0.69251 0.98976,-1.36651 1.64734,-2.05267c0.48926,-0.51052 1.19736,-1.20265 1.8,-1.8c0.60802,-0.60269 1.36254,-1.20688 2.02533,-1.6c0.68648,-0.40717 1.5163,-1.04629 2.34134,-1.6c0.63532,-0.42638 1.32436,-0.84369 2.42267,-0.98933c0.8037,-0.10658 1.71066,-0.01075 2.61066,-0.01067c0.89984,0.00008 1.75729,0.28357 1.8,1.16667c0.04025,0.83236 0,1.81183 0,2.632c0,0.90133 0.00532,1.80134 0,2.70133c-0.00534,0.90005 -0.38913,1.6453 -0.716,2.38533c-0.39392,0.89182 -0.3265,1.64968 -0.784,2.59383c-0.40671,0.83933 -0.5,1.72084 -0.5,2.62084c0,0.9 -0.09561,1.69401 -0.5,2.4c-0.45448,0.79344 -0.5,1.7 -0.5,2.6l0,0.9l-0.22133,0.87867l-0.69334,0.40666"  id="svg_19"  stroke-dasharray="null" stroke-linecap="null" stroke-linejoin="null" stroke-width="5"/>
        <path class="autograph__path" d="m178.5,62.5c-1,-1 -1.8,-1 -2.7,-1c-0.90001,0 -1.813,-0.14209 -2.69999,0.01067c-0.83315,0.14347 -1.6708,0.68621 -2.30001,1.09916c-0.70939,0.46558 -1.09335,1.4121 -1.5955,2.13301c-0.53084,0.76208 -0.68585,1.55735 -0.7045,2.45716c-0.01866,0.90052 -0.62093,1.60954 -0.91467,2.50133c-0.30318,0.92045 -0.08533,1.624 -0.08533,2.63201c0,0.86216 0,1.76666 0,2.66666c0,0.9 0,1.8 0,2.7c0,0.9 -0.32251,1.93841 0.16667,2.63334c0.50333,0.71501 1.19371,1.13806 2.15467,1.16666c0.67836,0.02019 1.65716,0 2.67866,0c0.75717,0 1.65266,0 2.51601,0c0.96316,0 2.00096,0.11152 2.48399,-0.52084c0.52029,-0.68114 1.00034,-1.47882 1.60001,-2.07916c0.59899,-0.59966 1.04791,-1.22798 1.45266,-2.1c0.38588,-0.83138 0.72592,-1.75709 1.38333,-2.27467c0.64704,-0.50942 1.38231,-1.02984 1.61667,-1.78249c0.28205,-0.90579 0.67772,-1.62865 0.862,-2.64151c0.13765,-0.75654 0.08533,-1.716 0.08533,-2.60133c0,-0.8 0.0168,-1.70016 0,-2.6c-0.018,-0.96451 -0.47513,-1.60015 -1.16667,-2.23333c-0.59804,-0.54757 -1.18904,-1.13807 -2.03333,-1.16667c-0.89949,-0.03047 -1.8,0 -2.55717,0c-1.06816,0 -1.75884,0 -2.722,0c-0.92082,0 -1.843,-0.19705 -2.7195,0.00133c-0.80847,0.18299 -1.18938,1.14445 -1.51733,1.884c-0.39106,0.88184 -0.456,1.77333 -1.08533,2.19733c-0.76929,0.5183 -1.18001,1.31681 -1.19867,2.21734c-0.01868,0.90114 -0.16862,1.86592 -0.42534,2.536c-0.29289,0.76449 -0.54201,1.76276 -0.57016,2.564c-0.03506,0.99806 -0.0045,1.764 -0.0045,2.84283c0,0.85717 -0.24487,1.85257 0.17067,2.55717c0.46475,0.78804 1.34042,1.00907 2.19333,1.58933c0.73074,0.49716 1.60815,0.82163 2.23601,1.18534c0.76985,0.44597 1.69999,0.42533 2.59999,0.42533c0.90001,0 1.8,0 2.6,0c0.9,0 1.90595,-0.08498 2.5215,-0.8855c0.38225,-0.4971 0.65734,-1.16295 1.27984,-2.06383c0.56163,-0.81279 1.25476,-1.2561 1.828,-1.84667c0.69267,-0.71361 1.19159,-1.51354 1.48533,-2.40533c0.30318,-0.92045 -0.06907,-1.66385 0.252,-2.63201c0.25229,-0.76072 1.00612,-1.66319 1.31867,-2.22133c0.35771,-0.63877 0.71867,-1.34497 1.116,-2.064c0.58868,-1.06531 0.99902,-1.72127 1.37783,-2.3605c0.54248,-0.91539 1.00653,-1.81774 1.26816,-2.42083c0.38849,-0.89552 0.60382,-1.517 1.23534,-2.69733c0.31581,-0.59028 0.87693,-1.35454 1.2745,-2.25967c0.35523,-0.80874 0.92556,-1.56639 1.18567,-2.443c0.22815,-0.76891 0.05716,-1.7 0.05716,-2.5c0,-0.9 0.98567,-2.78554 0,-2.78567c-0.686,-0.00008 -0.03177,1.4064 -0.284,2.35367c-0.19638,0.73751 -0.53639,1.90152 -0.69067,2.57066c-0.22766,0.98741 -0.60667,1.65815 -0.85866,2.66134c-0.19491,0.77597 -0.04828,1.5243 -0.1875,2.5c-0.14407,1.00964 -0.64032,1.68814 -0.85766,2.7c-0.16933,0.78833 -0.08638,1.80126 -0.13218,2.58933c-0.04229,0.72794 -0.65168,1.61828 -0.904,2.41067c-0.27431,0.86142 -0.05997,1.8004 -0.08533,2.6c-0.02859,0.90135 -0.6862,1.62236 -0.94284,2.5c-0.25311,0.86556 -0.05716,1.8 -0.05716,2.7c0,0.8 0,1.7 0,2.6c0,0.9 -0.13332,1.81061 0.0045,2.7c0.14436,0.93167 0.7216,1.58936 1.40616,2.08934c0.83479,0.6097 1.58917,0.60024 2.56784,0.61066c0.82011,0.00873 1.7215,0 2.62151,0c0.89999,0 1.81059,0.13332 2.69999,-0.0045c0.93167,-0.14436 1.5,-0.79683 2.17917,-1.4955l0.46367,-0.791"  id="svg_20"  stroke-dasharray="null" stroke-linecap="null" stroke-linejoin="null" stroke-width="5"/>
        <path class="autograph__path" d="m229.5,61.5c-0.05716,-1.7 -0.48129,-2.55236 -1.29999,-2.94733c-0.86548,-0.41755 -1.46863,-0.90449 -2.40002,-1.04817c-0.8895,-0.13721 -1.79999,-0.0045 -2.69998,-0.0045c-0.90001,0 -1.80001,0 -2.70018,0c-0.78516,0 -1.72545,-0.02398 -2.73316,0c-0.75665,0.01801 -1.47703,0.61803 -2.36667,0.91467c-0.85748,0.28591 -1.5489,0.36927 -2.0215,1.18533c-0.38601,0.66655 -1.28801,1.08145 -1.657,2c-0.33851,0.84272 -0.1215,1.7 -0.1215,2.6c0,0.9 -0.14298,1.81315 0.01066,2.7c0.14418,0.83219 0.98003,1.48747 1.78934,1.59867c0.83701,0.115 1.35431,0.91759 2.2,1.00133c0.75349,0.07461 1.65266,0 2.516,0c0.96317,0 1.88399,-0.00067 2.784,0c0.9,0.00067 1.75185,0.30727 2.45717,0.64733c0.85071,0.41016 1.63257,0.30542 2.60684,0.778c0.77765,0.37721 1.81598,0.19785 2.46933,0.74133c0.69,0.57397 0.96683,1.48595 1.14582,2.33334c0.18603,0.88081 0.1278,1.80654 0.0195,2.7c-0.11148,0.91977 -0.60938,1.51627 -1.02399,2.4c-0.37793,0.80553 -1.17398,1.35532 -1.94534,1.39867c-0.79609,0.04474 -1.80298,-0.07915 -2.69599,0.16799c-0.82788,0.22913 -1.63199,0.80475 -2.53334,0.83334c-0.89955,0.02854 -1.8,0 -2.55717,0c-0.9,0 -1.64733,0 -2.6415,0c-0.94417,0 -1.84416,0 -2.80133,0l-0.90001,0l-0.89999,0l-0.8,0"  id="svg_21"  stroke-dasharray="null" stroke-linecap="null" stroke-linejoin="null" stroke-width="5"/>
        <path class="autograph__path" d="m263.5,36.5c-1.60001,0.68267 -2.11115,1.53829 -2.39999,2.26133c-0.20807,0.52085 -0.57145,1.58498 -1.01068,2.51333c-0.32563,0.68827 -0.90976,1.64766 -1.24649,2.187c-0.36255,0.58072 -0.76099,1.19205 -1.34284,2.20501c-0.40967,0.71319 -0.80322,1.46767 -1.20001,2.244c-0.40329,0.78899 -0.99912,1.98919 -1.19867,2.38533c-0.38925,0.7727 -0.72748,1.51775 -1.43466,2.704c-0.3848,0.64548 -0.93353,1.36708 -1.11398,2.15267c-0.19568,0.8519 -0.59473,1.69055 -0.88602,2.68066c-0.19489,0.6624 -0.14835,1.49406 -0.33331,2.66667c-0.09507,0.60261 -0.35718,1.47336 -0.54935,2.31467c-0.22702,0.99394 -0.26532,1.87478 -0.28415,2.88517c-0.01453,0.77946 -0.25418,1.76073 -0.57452,2.38949c-0.45237,0.88786 -0.3212,1.81769 -0.43433,2.71967c-0.08475,0.67583 -0.56833,1.45505 -0.991,2.21184c-0.44183,0.79109 -0.81817,1.79532 -1.01468,2.6325c-0.19436,0.82814 -0.60223,1.55549 -1.01065,2.44666c-0.37265,0.8131 -0.91379,1.49388 -0.97467,2.4c-0.05362,0.7982 0,1.7 -0.05716,2.64283l-0.77618,0.52383l-0.16666,0.83334l-0.08532,0.8"  id="svg_22"  stroke-dasharray="null" stroke-linecap="null" stroke-linejoin="null" stroke-width="5"/>
        <path class="autograph__path" d="m238.5,56.5c1.79999,0 2.70001,0 3.60001,0c0.89999,0 1.79998,0 2.60131,0c0.96534,0 1.79868,0 2.77717,0c0.82019,0 1.72152,0 2.62152,0c0.89999,0 1.79998,0 2.69998,0c0.90002,0 1.80002,0 2.70001,0c0.79999,0 1.70001,0 2.60001,0c0.81067,0 1.72131,0 2.57464,0c0.94,0 1.92536,0 2.82535,0l0.79999,0l0.90002,0"  id="svg_23"  stroke-dasharray="null" stroke-linecap="null" stroke-linejoin="null" stroke-width="5"/>
        <path class="autograph__path" d="m285.5,61.5c-1.63599,-0.57467 -2.48129,-0.95286 -3.34732,-0.9955c-0.89444,-0.04404 -1.854,-0.0045 -2.53803,-0.0045c-0.94,0 -1.95773,-0.09289 -2.73999,0.036c-0.88186,0.1453 -1.71994,0.61747 -2.61749,0.91133c-0.85529,0.28003 -1.45831,0.75605 -2.15717,1.45267c-0.60095,0.59904 -1.19494,1.18485 -1.57467,2c-0.4122,0.88486 -0.86838,1.59744 -1.07801,2.41433c-0.24398,0.95083 -0.42825,1.70223 -0.74865,2.41767c-0.44065,0.98394 -1.01273,1.62985 -1.16266,2.59333c-0.10632,0.68331 -0.03601,1.67467 -0.03601,2.65867c0,0.69067 -0.01178,1.76341 0,2.68266c0.01043,0.8127 0.33865,1.60119 0.94732,2.18601c0.61377,0.58972 0.98926,1.42219 1.75718,1.64283c0.89529,0.25722 1.78082,0.0045 2.70001,0.0045c0.99417,0 1.75949,0 2.71014,0c0.88535,0 1.71976,0.19595 2.58536,-0.05717c0.87763,-0.25664 1.62677,-0.71858 2.49866,-0.94416c0.80646,-0.20866 1.2352,-1.11197 1.82217,-1.49867c0.9437,-0.6217 1.57114,-1.0973 2.17917,-1.7c0.60263,-0.59734 1.3074,-1.28309 1.71732,-2c0.44757,-0.78278 1.17367,-1.24129 1.91601,-1.96666c0.45249,-0.44214 0.98523,-1.32512 1.13065,-2.19734c0.15481,-0.92855 0.20267,-1.80266 0.53601,-2.636c0.33334,-0.83334 0.49774,-1.6955 0.5,-2.52084c0.00262,-0.96316 0.00064,-1.8265 0,-2.72199c-0.00067,-0.95583 -0.34421,-1.54766 -1.10001,-1.97867c-0.66909,-0.38157 -1.28802,-1.22876 -1.87066,-1.5785c-0.98178,-0.58933 -1.87641,-0.60801 -2.66501,-1.29983c-0.57083,-0.50078 -1.36432,-0.90017 -2.07898,-0.64417l-0.22818,0.811l-0.04648,0.729"  id="svg_24"  stroke-dasharray="null" stroke-linecap="null" stroke-linejoin="null" stroke-width="5"/>
        <path class="autograph__path" d="m307.5,53.5c-0.05716,1.7 -0.56842,2.48849 -1.09982,3.32133c-0.41819,0.65544 -0.79392,1.50281 -0.89569,2.37417c-0.10087,0.86357 -0.85874,1.34847 -1.00315,2.10583c-0.16833,0.88276 -0.00134,1.83467 -0.00134,2.68267c0,0.86334 -0.00006,1.88 0,2.716c0.00009,0.89983 0.28235,1.75728 1.20001,1.8c0.89902,0.04185 1.79999,0 2.59998,0c0.90002,0 1.80337,0.06414 2.62134,-0.01067c0.92141,-0.08426 1.84121,-0.39445 2.57333,-0.69383c0.87811,-0.35909 1.58929,-0.89009 2.20535,-1.4955c0.6052,-0.59473 1.30973,-1.29042 1.90015,-1.90033c0.54495,-0.56297 1.22854,-1.4371 1.548,-1.905c0.5025,-0.73597 1.00205,-1.66802 1.331,-2.45301c0.35586,-0.84927 0.95996,-1.63554 1.02084,-2.54166c0.05362,-0.7982 0.00363,-1.34532 0,-0.64366c-0.00534,1.02904 -0.16312,1.97798 -0.35266,2.6535c-0.21793,0.77664 -0.48508,1.82283 -0.62201,2.7435c-0.11298,0.75947 -0.49548,1.59809 -1.02533,2.41333c-0.41696,0.64154 -0.84375,1.32435 -0.98932,2.42266c-0.10791,0.81429 -0.01007,1.73201 -0.01068,2.58534c-0.00067,0.94 -0.24551,1.77728 -0.64734,2.52533c-0.41897,0.77996 -0.35266,1.78534 -0.35266,2.51067c0,0.98933 0.00668,1.78935 0,2.78933c-0.00534,0.80006 -0.02942,1.61672 -0.35266,2.5955c-0.25192,0.76282 -0.51431,1.6748 -0.814,2.57117c-0.28103,0.8406 -0.80844,1.55407 -1.59051,1.8815c-0.8764,0.36691 -1.63214,0.66371 -2.64417,0.86783c-0.61282,0.12361 -1.76834,0.23834 -2.55133,0.43667c-0.82537,0.20906 -1.87671,0.51063 -2.59466,0.59016c-0.67548,0.07483 -1.874,0.05717 -2.67801,0.05717c-0.82199,0 -1.853,0 -2.52799,0c-1.08001,0 -1.836,0 -2.74667,0l-0.95834,0l0.45834,0l0.79999,0"  id="svg_25"  stroke-dasharray="null" stroke-linecap="null" stroke-linejoin="null" stroke-width="5"/>
        <path class="autograph__path" d="m339.5,58.5c-2.47916,0.54167 -3.11499,1.31314 -3.5,2.02083c-0.31229,0.57399 -0.76993,1.59155 -1.20001,2.322c-0.4668,0.7928 -1.01996,1.38732 -1.24732,2.30983c-0.20916,0.8487 -0.65719,1.62977 -0.96734,2.54867c-0.2204,0.65295 -0.08533,1.63467 -0.08533,2.4c0,0.99417 -0.00552,1.91335 0,2.87784c0.00534,0.93154 0.16669,1.872 0.5625,2.54167c0.36148,0.61155 1.20023,1.38743 1.69882,1.77916c0.78037,0.61313 1.565,1.20865 2.2905,1.791c0.4646,0.37293 1.18863,0.93799 2.41486,1.23967c0.6622,0.16291 1.36618,0.07312 2.53332,0.336c0.81281,0.18307 1.59192,0.82065 2.5,0.83333c0.80444,0.01123 1.6182,-0.59273 2.20001,-1.20133c0.51663,-0.54041 1.10489,-1.47466 1.508,-2.11733c0.34076,-0.54327 1.05456,-1.54658 1.64999,-2.34384c0.31723,-0.42474 0.65796,-0.84689 1.284,-1.73667c0.88074,-1.2518 1.11462,-1.64637 1.48651,-2.37749c0.46634,-0.91683 0.8826,-1.88368 1.26083,-2.56201c0.45755,-0.82058 0.60022,-1.66116 0.61066,-2.63983c0.00873,-0.82012 0.01041,-1.72156 0,-2.6215c-0.01044,-0.90018 -0.33545,-1.72059 -1,-2.4c-0.50485,-0.51615 -1.34421,-1.06532 -2,-1.52083c-0.8659,-0.60146 -1.17862,-1.20877 -1.867,-1.8265c-0.81626,-0.73247 -1.48139,-0.92217 -2.457,-1.206c-0.61853,-0.17995 -1.8031,-0.41807 -2.676,-0.44667c-0.75677,-0.02479 -1.66165,0 -2.46167,0c-0.95965,0 -1.76367,0 -2.58566,0c-1.03101,0 -1.92859,-0.18815 -2.931,0.00033c-0.90177,0.16956 -0.98001,1.04134 -0.85501,1.99967l0.26935,0.78933l0.36532,0.72534"  id="svg_26"  stroke-dasharray="null" stroke-linecap="null" stroke-linejoin="null" stroke-width="5"/>
        <path class="autograph__path" d="m363.45962,54.5c-1.01725,0.05717 -1.4963,0.54986 -1.9874,1.10017c-0.39683,0.44469 -0.75414,0.72788 -1.15248,1.55699c-0.33796,0.70346 -0.63956,1.54722 -0.94424,2.14284c-0.30923,0.60449 -0.72284,1.36852 -0.97714,2.17917c-0.25918,0.8262 -0.3426,1.7283 -0.57862,2.42083c-0.27773,0.81488 -0.34387,1.70017 -0.34387,2.48533c0,0.95067 0,1.716 0,2.71017c0,0.91917 -0.08265,1.77942 0.00268,2.7045c0.08592,0.9314 0.26352,1.66395 0.64596,2.41467c0.33946,0.66633 0.68809,1.24361 0.93546,1.98533c0.25468,0.76368 0.41593,1.61384 0.8094,2.3c0.3513,0.61263 0.69842,1.24076 1.05144,1.7c0.50899,0.66212 0.96223,0.97345 1.41066,1.49867c0.41986,0.49174 0.94864,0.79683 1.48718,0.80133l0.53853,0l0.53216,-0.01067"  id="svg_27"  stroke-dasharray="null" stroke-linecap="null" stroke-linejoin="null" stroke-width="5"/>
        <path class="autograph__path" d="m396.5,58.5c-1.38934,-2.364 -1.77734,-3.29911 -2.35266,-3.94733c-0.52634,-0.59304 -1.35574,-1.02278 -2.16467,-1.05133c-0.86747,-0.03063 -1.81601,-0.00134 -2.75467,-0.00134c-0.54932,0 -1.728,0 -2.61899,0c-0.83701,0 -1.86539,-0.35189 -2.65167,0.036c-0.71399,0.35223 -1.21402,1.12083 -1.45734,1.98483c-0.26648,0.94627 -0.6716,1.57206 -0.91598,2.46317c-0.2312,0.84296 -0.54856,1.69848 -0.91736,2.516c-0.32416,0.71856 -0.56207,1.64169 -0.814,2.4045c-0.32324,0.97878 -0.3605,1.79548 -0.35251,2.79534c0.00626,0.77958 0.19861,1.79306 0.61051,2.4255c0.46432,0.71294 0.80847,1.42911 1.4895,2.35316c0.48206,0.65409 1.22275,1.11884 1.89984,1.5215c0.8353,0.49673 1.52393,1.24108 2.4,1.464c0.87289,0.22211 1.80001,0.036 2.70034,0.036c0.71399,0 1.66901,0 2.42051,0c0.79647,0 2.01748,-0.002 2.8175,0c0.89999,0.00225 1.58658,0.46224 1.883,1.32134c0.23928,0.69352 0.71368,1.6502 0.77417,2.37416c0.07531,0.90137 0.37118,1.88421 -0.01636,2.78367c-0.3078,0.71434 -0.94141,1.286 -1.5,2.02083c-0.50464,0.66388 -1.21289,1.2233 -2.13184,1.44734c-0.68258,0.16641 -1.66955,0.60197 -2.51397,0.886c-0.80185,0.26971 -1.81198,0.1524 -2.52884,0.16666c-0.90506,0.01801 -1.61484,0.61812 -2.50452,0.91467c-0.85764,0.28587 -1.79999,0.08533 -2.61432,0.08533c-0.95502,0 -1.70651,0 -2.50299,0c-0.99735,0 -1.87201,0 -2.88236,-0.00017l-0.75866,-0.02066l-0.92734,-0.33634l-0.11298,-0.84283"  id="svg_28"  stroke-dasharray="null" stroke-linecap="null" stroke-linejoin="null" stroke-width="5"/>
        <path class="autograph__path" d="m422.13425,28.38188c-0.75143,1.05364 -0.77152,1.82389 -1.05258,2.94999c-0.15139,0.60659 -0.55146,1.48995 -0.80404,2.12121c-0.39386,0.98435 -0.61062,1.69762 -0.8075,2.44801c-0.20557,0.7836 -0.39118,1.61719 -0.74733,2.92524c-0.12463,0.45774 -0.39911,1.39039 -0.53579,1.86768c-0.27664,0.96619 -0.42763,1.44826 -0.7726,2.93033c-0.11524,0.49502 -0.31467,1.52605 -0.41157,2.06828c-0.10109,0.56565 -0.30356,1.79201 -0.52629,3.17534c-0.12246,0.76055 -0.2507,1.56175 -0.38723,2.39392c-0.14031,0.85523 -0.28525,1.72427 -0.43696,2.59747c-0.1512,0.87026 -0.29787,1.72992 -0.62314,3.36693c-0.15269,0.76854 -0.31172,1.49534 -0.46656,2.183c-0.14629,0.64965 -0.2901,1.25862 -0.42393,1.82899c-0.12458,0.53096 -0.44664,1.88256 -0.55368,2.60255c-0.12749,0.85757 -0.13366,1.593 -0.13472,2.58027c-0.00085,0.8024 0,1.6048 0,2.81118c0,0.83845 0.02216,1.82912 -0.01646,2.4367c-0.07198,1.13227 -0.2647,1.89871 -0.43722,2.70793c-0.11338,0.53172 -0.30992,1.73755 -0.33223,2.57715c-0.02619,0.98591 0.1222,1.75248 -0.0046,2.67253c-0.11367,0.82474 -0.70879,1.24234 -0.96313,2.17136c-0.19182,0.70064 -0.49174,1.64868 -0.59471,2.4267c-0.0942,0.71169 -0.38649,1.53987 -0.80944,2.3377c-0.32489,0.61285 -0.77524,1.29325 -0.78945,0.3422c-0.01065,-0.71312 0,-1.68608 0,-2.47275c0,-0.98333 -0.02393,-1.79973 0.09025,-2.47242c0.19189,-1.13061 0.46365,-1.76483 0.71565,-2.44423c0.25477,-0.6869 0.76449,-1.91984 0.96469,-2.45752c0.28578,-0.76749 0.60238,-1.96596 0.75669,-2.70957c0.08398,-0.40466 0.23921,-1.26989 0.43881,-2.16497c0.30354,-1.36111 0.43243,-1.79788 0.70696,-2.63287c0.26195,-0.79669 0.5471,-1.52232 0.93207,-2.49061c0.31866,-0.80157 0.54086,-1.46492 0.85469,-2.40589c0.26742,-0.80186 0.63273,-1.26523 0.85931,-2.14579c0.19252,-0.74818 0.71636,-1.31476 1.29642,-1.701c0.61016,-0.40628 1.17767,-0.66315 1.94835,-0.87451c0.76254,-0.20913 1.48838,-0.08391 2.11993,-0.08391c0.71052,0 1.50696,-0.37783 2.11509,0.04097c0.56621,0.38994 0.40291,1.36119 0.63641,2.32164c0.2124,0.87357 0.572,1.89554 0.72103,2.52258c0.15886,0.6683 0.32389,1.35006 0.50102,2.65368c0.10827,0.7968 0.12981,1.63938 0.13159,2.53324c0.00169,0.84304 0,1.61511 0,2.54993c0,0.75258 0,1.7346 0,2.52127c0,0.98202 0,1.7346 0,2.79545c0,0.84288 0,1.72788 0,2.51454l0,0.885l0,0.885"  id="svg_29"  stroke-dasharray="null" stroke-linecap="null" stroke-linejoin="null" stroke-width="5" transform="rotate(4.21745 417.396 57.8793)"/>
        <path class="autograph__path" d="m445.5,54.5c-0.97467,1.82533 -1.14716,2.84374 -1.52081,3.52083c-0.45575,0.82588 -0.81397,1.48147 -1.04322,2.3005c-0.32592,1.16429 -0.34973,1.77755 -0.43597,2.65783c-0.08185,0.83572 -0.28131,1.83511 -0.57465,2.67417c-0.33691,0.96375 -0.42468,1.73067 -0.42535,2.672c-0.00049,0.69067 0,1.80001 0,2.65867c0,0.86334 0.14844,1.81288 -0.22131,2.616c-0.35846,0.7786 -0.78003,1.57775 -1,2.44283c-0.18408,0.72387 -0.4632,1.50132 -0.65753,2.536c-0.17585,0.93628 -0.25837,1.70121 -0.56385,2.56384c-0.23797,0.67193 -0.58764,1.34516 -0.98932,2.38933c-0.35187,0.91462 -0.5263,1.86383 -0.56799,2.264l0,-0.83917l0,-0.7395l0,-0.8835"  id="svg_30"  stroke-dasharray="null" stroke-linecap="null" stroke-linejoin="null" stroke-width="5"/>
        <path class="autograph__path" d="m449.10625,36.54325c-2.98166,0 -4.53871,-0.27162 -5.96621,0.18547c-1.4944,0.47855 -2.44371,2.41731 -2.5159,3.91229c-0.0985,2.03919 -0.6732,4.53137 0.09477,5.98363c0.78681,1.48782 2.78766,0.78609 4.31479,0.78609c1.52723,0 3.07248,0.29015 4.58159,-0.00979c1.57881,-0.31378 2.40053,-1.73191 2.87705,-3.68516l0.00766,-1.78407l0,-2.09345l0,-1.87644"  id="svg_31"  stroke-dasharray="null" stroke-linecap="null" stroke-linejoin="null" stroke-width="5"/>
        <path class="autograph__path" d="m467.5,43.5c-1.93866,1.836 -2.00702,2.62552 -2.36169,3.6045c-0.23603,0.65138 -0.80457,1.56242 -1.29096,2.35267c-0.34704,0.56386 -0.73895,1.12498 -1.32587,2.34299c-0.28631,0.59424 -0.62024,1.53289 -0.82013,2.18518c-0.3161,1.03154 -0.50634,1.76505 -0.68054,2.51466c-0.17315,0.74519 -0.41461,2.17703 -0.46362,2.83833c-0.06769,0.91368 -0.05719,1.99501 -0.05719,2.7c0,0.8 -0.1214,1.83417 0.00452,2.76167c0.11151,0.82141 0.73663,1.43165 1.64813,2c0.68024,0.42415 1.40607,0.99493 2.10004,1.34283c0.85186,0.42706 1.65179,0.35492 2.64733,0.35717c0.79999,0.00181 1.79981,0.00007 2.57917,0c0.99933,-0.00008 1.83551,-0.06056 2.6568,-0.61066c0.69964,-0.46865 1.39624,-0.83916 2.19732,-1.38934c0.69739,-0.47896 1.35938,-1.14277 1.99201,-1.85733c0.36487,-0.41212 1.02777,-1.46761 1.29199,-2.116c0.28992,-0.71145 0.53271,-1.52402 0.85205,-2.40001c0.35162,-0.96459 0.79572,-1.99332 1.03595,-2.52299c0.24237,-0.53436 0.74225,-1.58188 0.98938,-2.084c0.66718,-1.35539 1.04749,-2.07025 1.44281,-2.91551c0.28473,-0.60879 0.55713,-1.69344 0.5625,-2.50416c0.00592,-0.89998 -0.00104,-1.92455 -0.03601,-1.90666c-0.77502,0.39641 -0.41254,1.63144 -0.61066,2.308c-0.24231,0.82732 -0.52502,1.83068 -0.836,3.01866c-0.16821,0.64263 -0.33435,1.30609 -0.49652,1.98c-0.16186,0.67276 -0.46716,1.97699 -0.6875,3.16666c-0.09729,0.52527 -0.23846,1.46405 -0.29162,2.3125c-0.05176,0.82604 -0.04169,2.1875 -0.04169,2.70617c0,1.12534 0,1.71601 0,2.31467c0,1.18933 0,1.764 0,3.31383c0,0.853 0.00061,1.58201 0,2.4955c-0.00067,1.004 0.08966,1.88548 -0.284,2.80667c-0.27557,0.6793 -0.68323,1.54443 -0.71148,2.34567c-0.03382,0.95941 -0.00452,1.785 -0.00452,2.7c0,1.00499 0,1.72233 0,2.46367c0,0.74933 0,2.208 0,2.888c0,0.945 0.02673,1.5253 -0.00134,2.79866c-0.01777,0.80588 -0.43653,1.43907 -1.19733,1.97333c-0.59717,0.41937 -0.88184,1.43337 -1.68402,1.70001c-0.78388,0.26055 -1.80908,0.57597 -2.36396,0.88666c-0.60583,0.33922 -1.9179,1.13187 -2.27502,1.32784c-0.73566,0.40367 -1.50983,0.80321 -2.34003,1.14299c-1.29022,0.52807 -1.75512,0.65334 -2.69995,0.90001c-0.97546,0.25466 -1.48358,0.35396 -2.52502,0.55583c-1.07855,0.20907 -1.6344,0.30115 -2.75702,0.50133c-0.5603,0.09992 -1.65979,0.29593 -2.18933,0.4c-1.46924,0.28873 -2.31055,0.4951 -3.04834,0.68934c-0.65149,0.17151 -1.74677,0.48806 -2.672,0.57466c-0.75744,0.0709 -1.72583,0.036 -2.66797,0.036c-0.91198,0 -1.61102,0 -2.544,0c-0.77869,0 -1.70136,0 -2.77466,0c-0.58417,0 -1.19336,0 -2.46668,0c-0.65417,0 -1.31335,0 -2.62664,0c-1.28003,0 -1.90503,0 -2.52002,0c-1.20002,0 -1.78498,0 -2.35999,0c-1.66504,0 -2.20001,0 -3.23999,0c-0.505,0 -1.48504,0 -2.88,0l-0.8747,0l-0.80267,0l-0.69867,0"  id="svg_32"  stroke-dasharray="null" stroke-linecap="null" stroke-linejoin="null" stroke-width="5"/>
        <path class="autograph__path" d="m494.5,77.5c0.88666,1.084 1.67468,1.31623 2.34735,1.7045c0.92926,0.53637 1.80152,0.8816 2.48596,1.46216c0.66565,0.56461 1.29657,0.64682 1.8667,0.12884c0.74158,-0.67375 1.15241,-1.24265 1.59546,-2.30083c0.30548,-0.72963 0.60614,-1.65176 0.68372,-2.45301c0.08978,-0.92672 -0.49982,-1.53124 -1.37921,-1.54166c-0.89991,-0.01066 -1.79999,0 -2.70014,0c-0.78515,0 -1.72577,-0.03572 -2.73315,0c-0.80652,0.0286 -1.18396,0.8015 -1.16669,1.7c0.01733,0.90055 0.43597,1.68934 1.20001,2.216l0.79999,0.25066l0.70001,0.48067l0.86249,0.33183"  id="svg_33"  stroke-dasharray="null" stroke-linecap="null" stroke-linejoin="null" stroke-width="5"/>
        />
      </g>
    </svg>                     